# xmcd CD database file
#
# Track frame offsets:
#	150
#	16408
#	28093
#	43533
#	66413
#	77440
#	89445
#	102408
#	119170
#	137135
#	154345
#	163573
#	171653
#	184933
#	196690
#	210618
#	233975
#	247113
#	263718
#	278858
#	292778
#	314378
#
# Disc length: 4399 seconds
#
# Revision: 0
# Processed by: cddbd v1.4PL0 Copyright (c) Steve Scherf et al.
# Submitted via: CDex 1.50beta10
#
DISCID=45112d16
DTITLE=Various Artist - Bluesville -- Volume 1 Folk Blues
DYEAR=1900
DGENRE=Blues
TTITLE0=Judge Boushay Blues - Furry Lewis
TTITLE1=Country Girl Blues - Memphis Willie B
TTITLE2=Big Road Blues - K C Douglas
TTITLE3=Levee Camp Blues - Big Joe Williams
TTITLE4=Catfish - Robert Curtis Smith
TTITLE5=Highway 61 - Memphis Willie B
TTITLE6=Shake 'Em On Down - Furry Lewis
TTITLE7=San Quentin Blues - Sidney Maiden
TTITLE8=Big Fat Mamma - Wade Walton
TTITLE9=Grievin' Me - Pete Franklin
TTITLE10=Hand-Me-Down Baby - Sidney Maiden
TTITLE11=Spoken introduction to The Dyin' Crapshooter Blues - Blind Willie McTell
TTITLE12=The Dyin' Crapshooter Blues - Blind Willie McTell
TTITLE13=Alberta - Blind Snooks Eaglin
TTITLE14=Fine Booze And Heavy Dues - Lonnie Johnson
TTITLE15=Blues Before Sunrise =Scrapper Blackwell
TTITLE16=You Is One Black Rat - Doug Quattlebaum
TTITLE17=Brown Skinned Woman - Blind Snooks Eaglin
TTITLE18=You Got To Move - Reverend Gary Davis
TTITLE19=See What You Done Done - Baby Tate
TTITLE20=Goin' Where The Monon Crosses The Yellow Dog - Scrapper Blackwell
TTITLE21=Pawn Shop - Brownie McGhee and Sonny Terry
EXTD=
EXTT0=
EXTT1=
EXTT2=
EXTT3=
EXTT4=
EXTT5=
EXTT6=
EXTT7=
EXTT8=
EXTT9=
EXTT10=
EXTT11=
EXTT12=
EXTT13=
EXTT14=
EXTT15=
EXTT16=
EXTT17=
EXTT18=
EXTT19=
EXTT20=
EXTT21=
PLAYORDER=
